<svg width="174" height="45" viewBox="0 0 174 45" xmlns="http://www.w3.org/2000/svg">
    <g fill-rule="nonzero" fill="none">
        <path fill="#091C30" d="M51.847 20.402V7.619h-5.18V4.375h13.958v3.244h-5.18v12.798zM62.083 20.417V4.375h3.59v5.866h.145a4.352 4.352 0 0 1 1.669-1.58 4.386 4.386 0 0 1 2.246-.515c3.133 0 4.434 2.095 4.434 4.645v7.626h-3.614v-6.92c0-1.676-.555-2.274-2.386-2.274-1.735 0-2.482.574-2.482 2.394v6.8h-3.602zM75.833 14.606c0-3.847 2.313-6.273 6.094-6.273 3.638 0 5.781 2.15 5.781 5.281a10.732 10.732 0 0 1-.168 1.768h-8.31c.072 1.673.747 2.342 2.71 2.342 1.445 0 2.07-.299 2.07-1.051v-.144h3.566v.242c0 2.557-2.216 4.062-5.685 4.062-4.152-.015-6.058-2.428-6.058-6.227zm3.424-1.419h4.986c.072-1.242-.747-1.935-2.433-1.935-1.734.008-2.409.678-2.553 1.935zM47.708 40.208V24.167h7.4c3.46 0 5.934 2.095 5.934 5.65 0 3.556-2.475 5.627-5.934 5.627h-3.796v4.764h-3.604zm3.604-12.81v4.837h3.94c1.657 0 2.21-.502 2.21-2.418 0-1.915-.553-2.403-2.21-2.403l-3.94-.015zM62.083 34.399c0-3.848 2.313-6.274 6.094-6.274 3.638 0 5.781 2.151 5.781 5.282a10.748 10.748 0 0 1-.168 1.769h-8.31c.072 1.673.746 2.342 2.71 2.342 1.445 0 2.07-.299 2.07-1.052v-.143h3.566v.239c0 2.557-2.216 4.063-5.685 4.063-4.155-.012-6.058-2.426-6.058-6.226zm3.42-1.42h4.984c.072-1.242-.747-1.935-2.433-1.935-1.731.009-2.406.678-2.55 1.936zM75.833 40.414V28.362h3.365v1.943h.148c.605-1.222 1.693-2.18 3.415-2.18 2.544 0 3.489 1.869 3.489 4.289v1.102h-3.61v-.647c0-1.294-.411-1.701-1.55-1.701s-1.647.383-1.647 1.701v7.548l-3.61-.003zM87.917 40.208v-12.04h3.35v2.094h.145c.65-1.364 1.899-2.345 3.967-2.345s3.306.933 3.907 2.345h.12c.673-1.316 1.875-2.345 4.11-2.345 3.126 0 4.4 2.094 4.4 4.643v7.636h-3.605V33.29c0-1.675-.505-2.274-2.26-2.274-1.635 0-2.333.527-2.333 2.274v6.918h-3.605V33.29c0-1.675-.53-2.274-2.26-2.274-1.636 0-2.357.527-2.357 2.227v6.965h-3.58zM109.583 37.327c0-1.865 1.354-3.012 3.87-3.394l4.154-.622v-.382c0-1.41-.77-1.673-2.197-1.673-1.477 0-2.057.406-2.057 1.625v.263H109.9v-.263c0-2.868 2.245-4.756 5.68-4.756 3.576 0 5.462 1.936 5.462 5.139v7.122h-3.36V38.76h-.136c-.649.896-1.882 1.864-4.132 1.864-2.163 0-3.83-1.123-3.83-3.298zm5.027.573c1.477 0 2.997-.382 2.997-2.246l-3.477.525c-.752.12-1.09.359-1.09.86 0 .646.51.861 1.57.861zM123.542 40.208V24.167h3.541v16.041zM129.216 27.009l-.05-2.634h3.677v2.634h-3.627zm0 13.408V28.358h3.7v12.044l-3.7.015zM135.208 40.208v-12.04h3.35v2.094h.144c.651-1.364 1.951-2.345 4.072-2.345 3.156 0 4.518 2.094 4.518 4.643v7.636h-3.615V33.29c0-1.675-.553-2.274-2.385-2.274-1.735 0-2.481.551-2.481 2.37v6.822h-3.603zM149.583 40.208V24.167h3.598v8.451h1.787l2.753-4.453h4.154l-3.96 5.746 3.924 6.285h-4.142l-2.656-4.381h-1.86v4.381zM162.316 36.291v-.071h3.427v.501c0 .895.527 1.074 2.277 1.074 1.462 0 1.702-.214 1.702-.811 0-.645-.336-.788-1.942-1.075l-1.821-.334c-2.373-.43-3.667-1.433-3.667-3.653 0-2.221 1.82-3.797 5.248-3.797 2.948 0 5.202 1.385 5.202 4.083v.334h-3.428v-.334c0-.788-.335-1.218-1.87-1.218-1.437 0-1.773.299-1.773.896s.216.74 1.654 1.027l2.205.453c2.54.478 3.595 1.624 3.595 3.582 0 2.244-1.846 3.677-5.177 3.677-3.787-.012-5.632-1.42-5.632-4.334z"/>
        <path fill="#F86334" d="m30 30 10-10.033v-9.97L30 0"/>
        <path fill="#5F8DFF" d="M15 0h-5v5h5z"/>
        <path fill="#80AAFF" d="M15 5h-5v5h5z"/>
        <path fill="#4E79D1" d="M20 0h-5v5h5z"/>
        <path fill="#3D68E6" d="M20 5h-5v5h5zM25 0h-5v5h5z"/>
        <path fill="#3258B7" d="M25 5h-5v5h5z"/>
        <path fill="#3D68E6" d="M25 20h-5v5h5z"/>
        <path fill="#3258B7" d="M25 25h-5v5h5z"/>
        <path fill="#F7B5A4" d="M30 20h-5v5h5z"/>
        <path fill="#EF866A" d="M30 25h-5v5h5z"/>
        <path fill="#3258B7" d="M5 20H0v5h5z"/>
        <path fill="#3D68E6" d="M5 24.792H0v5h5zM10 20H5v5h5z"/>
        <path fill="#345E9B" d="M5 29.792H0v5h5z"/>
        <path fill="#1B50A5" d="M10 29.792H5v5h5z"/>
        <path fill="#3258B7" d="M10 24.792H5v5h5z"/>
        <path fill="#1B50A5" d="M5 34.792H0v5h5z"/>
        <path fill="#1F4172" d="M10 34.792H5v5h5z"/>
        <path fill="#80AAFF" d="M5 10H0v5h5z"/>
        <path fill="#3D68E6" d="M5 15H0v5h5z"/>
        <path fill="#5F8DFF" d="M10 10H5v5h5z"/>
        <path fill="#4E79D1" d="M10 15H5v5h5z"/>
        <path fill="#F7B5A4" d="M30 0h-5v5h5z"/>
        <path fill="#EF866A" d="M30 5h-5v5h5z"/>
        <path fill="#F86334" d="M35 40h-5v5h5zM5 0H0v5h5zM30 40h-5v5h5z"/>
        <path fill="#EF866A" d="M25 40h-5v5h5z"/>
    </g>
</svg>
